<!-- GENERATED by gen/pfd.py from data/instruments.csv, data/streams.csv and data/equipment.csv - do not edit by hand. Edit the CSV source and run python -m gen.build. -->
<svg xmlns="http://www.w3.org/2000/svg" viewBox="0 0 1000 602" class="pfd-svg" role="img" aria-label="Process flow diagram of unit operation U01-LIG, Ligation reactor, with its streams and instrument bubbles">
  <style>
    .box { fill: none; stroke: #00897b; stroke-width: 2; }
    .ttl { fill: currentColor; font: 700 15px sans-serif; }
    .lbl { fill: currentColor; font: 600 13px sans-serif; }
    .sub { fill: currentColor; font: 400 10px sans-serif; opacity: 0.8; }
    .sid { fill: #00695c; font: 700 10px sans-serif; }
    .wid { fill: #c62828; font: 700 10px sans-serif; }
    .flow { stroke: #00897b; stroke-width: 1.8; marker-end: url(#pfd-u01-lig-arrow); fill: none; }
    .wflow { stroke: #c62828; stroke-width: 1.4; stroke-dasharray: 3 3; marker-end: url(#pfd-u01-lig-warr); fill: none; }
    .uflow { stroke: #8e24aa; stroke-width: 1.4; stroke-dasharray: 4 3; marker-end: url(#pfd-u01-lig-uarr); fill: none; }
    .bub { fill: none; stroke: #3949ab; stroke-width: 1.8; }
    .bubw { fill: none; stroke: #3949ab; stroke-width: 1.8; stroke-dasharray: 4 3; }
    .tag { fill: #3949ab; font: 700 10px sans-serif; }
    .lead { stroke: #78909c; stroke-width: 0.9; fill: none; }
    .act { stroke: #00897b; stroke-width: 1.4; marker-end: url(#pfd-u01-lig-aarr); fill: none; }
  </style>
  <defs>
    <marker id="pfd-u01-lig-arrow" markerWidth="9" markerHeight="9" refX="7" refY="3" orient="auto"><path d="M0,0 L7,3 L0,6 Z" fill="#00897b"/></marker>
    <marker id="pfd-u01-lig-warr" markerWidth="9" markerHeight="9" refX="7" refY="3" orient="auto"><path d="M0,0 L7,3 L0,6 Z" fill="#c62828"/></marker>
    <marker id="pfd-u01-lig-uarr" markerWidth="9" markerHeight="9" refX="7" refY="3" orient="auto"><path d="M0,0 L7,3 L0,6 Z" fill="#8e24aa"/></marker>
    <marker id="pfd-u01-lig-aarr" markerWidth="9" markerHeight="9" refX="7" refY="3" orient="auto"><path d="M0,0 L7,3 L0,6 Z" fill="#00897b"/></marker>
  </defs>
  <text class="ttl" x="24" y="30">U01-LIG &#183; Ligation reactor</text>
  <text class="sub" x="24" y="50">6 instrument(s) in the register for this unit operation. Symbol set is this project’s own (Q-054); the final control element a loop acts through is not registered (Q-055).</text>
  <rect class="box" x="380" y="72" width="240" height="104" rx="6"/>
  <text class="lbl" x="500" y="116" text-anchor="middle">Ligation</text>
  <text class="sub" x="500" y="136" text-anchor="middle">U01-LIG</text>
  <path class="flow" d="M78,98 L380,98"/>
  <text class="sid" x="78" y="91">S01</text>
  <text class="sub" x="78" y="113">Received blocks (guide)</text>
  <path class="flow" d="M78,124 L380,124"/>
  <text class="sid" x="78" y="117">S02</text>
  <text class="sub" x="78" y="139">Received blocks (passenger)</text>
  <path class="uflow" d="M78,150 L380,150"/>
  <text class="sid" x="78" y="143">S03</text>
  <text class="sub" x="78" y="165">Ligation buffer</text>
  <path class="flow" d="M620,124 L922,124"/>
  <text class="sid" x="626" y="117">S04</text>
  <text class="sub" x="626" y="139">Ligation reaction mass</text>
  <path class="lead" d="M229,150 L262,268"/>
  <text class="sub" x="262" y="264" text-anchor="middle">at S03</text>
  <circle class="bubw" cx="262" cy="296" r="20"/>
  <text class="tag" x="262" y="295" text-anchor="middle">AI</text>
  <text class="tag" x="262" y="306" text-anchor="middle">0103</text>
  <text class="sub" x="287" y="300">concentration, off_line</text>
  <path class="lead" d="M771,124 L738,268"/>
  <text class="sub" x="738" y="264" text-anchor="middle">at S04</text>
  <circle class="bub" cx="738" cy="296" r="20"/>
  <text class="tag" x="738" y="295" text-anchor="middle">TIC</text>
  <text class="tag" x="738" y="306" text-anchor="middle">0101</text>
  <text class="sub" x="763" y="300">temperature, in_line</text>
  <path class="act" d="M738,276 L500,176"/>
  <circle class="bub" cx="738" cy="348" r="20"/>
  <text class="tag" x="738" y="347" text-anchor="middle">LI</text>
  <text class="tag" x="738" y="358" text-anchor="middle">0102</text>
  <text class="sub" x="763" y="352">level, in_line</text>
  <circle class="bubw" cx="738" cy="400" r="20"/>
  <text class="tag" x="738" y="399" text-anchor="middle">AI</text>
  <text class="tag" x="738" y="410" text-anchor="middle">0104</text>
  <text class="sub" x="763" y="404">conversion, at_line</text>
  <circle class="bubw" cx="738" cy="452" r="20"/>
  <text class="tag" x="738" y="451" text-anchor="middle">AI</text>
  <text class="tag" x="738" y="462" text-anchor="middle">0105</text>
  <text class="sub" x="763" y="456">purity, off_line</text>
  <circle class="bubw" cx="738" cy="504" r="20"/>
  <text class="tag" x="738" y="503" text-anchor="middle">QI</text>
  <text class="tag" x="738" y="514" text-anchor="middle">0106</text>
  <text class="sub" x="763" y="508">bioburden, off_line</text>
  <text class="sub" x="24" y="570">Blue ring = instrument bubble; dashed ring = withdrawn sample (at-line or off-line), which no loop can close on. Teal arrow to the unit box = the loop acts on this unit.</text>
  <text class="sub" x="24" y="586">Grey leader lines point at the sensing location and carry no material. Symbols are this project’s own, after DEXPI Process 1.0 &#167;6 - not ISA and not ISO 10628-1 (Q-053, Q-054).</text>
</svg>
